{
  "accessors": [
    {
      "bufferView": 1,
      "componentType": 5126,
      "count": 4692,
      "max": [
        31.441568374633789,
        170.42741394042969,
        11.452944755554199
      ],
      "min": [
        -31.441568374633789,
        -0.26744839549064636,
        -16.847927093505859
      ],
      "type": "VEC3"
    },
    {
      "bufferView": 1,
      "byteOffset": 56304,
      "componentType": 5126,
      "count": 4692,
      "max": [
        0.99992239475250244,
        0.99995255470275879,
        0.99954652786254883
      ],
      "min": [
        -0.99954366683959961,
        -0.99995255470275879,
        -0.99954652786254883
      ],
      "type": "VEC3"
    },
    {
      "bufferView": 2,
      "componentType": 5126,
      "count": 4692,
      "max": [
        0.99989205598831177,
        0.99527204036712646,
        0.99949753284454346,
        1
      ],
      "min": [
        -0.99989205598831177,
        -0.99773502349853516,
        -0.99997490644454956,
        -1
      ],
      "type": "VEC4"
    },
    {
      "bufferView": 0,
      "componentType": 5125,
      "count": 22512,
      "max": [
        4691
      ],
      "min": [
        0
      ],
      "type": "SCALAR"
    }
  ],
  "asset": {
    "generator": "Sketchfab (OSG glTF plugin)",
    "version": "2.0"
  },
  "bufferViews": [
    {
      "buffer": 0,
      "byteLength": 90048,
      "byteOffset": 0,
      "name": "floatBufferViews",
      "target": 34963
    },
    {
      "buffer": 0,
      "byteLength": 112608,
      "byteOffset": 90048,
      "byteStride": 12,
      "name": "floatBufferViews",
      "target": 34962
    },
    {
      "buffer": 0,
      "byteLength": 75072,
      "byteOffset": 202656,
      "byteStride": 16,
      "name": "floatBufferViews",
      "target": 34962
    }
  ],
  "buffers": [
    {
      "byteLength": 277728,
      "uri": "scene.bin"
    }
  ],
  "materials": [
    {
      "doubleSided": true,
      "emissiveFactor": [
        0,
        0,
        0
      ],
      "name": "initialShadingGroup",
      "pbrMetallicRoughness": {
        "baseColorFactor": [
          0.80000000000000004,
          0.80000000000000004,
          0.80000000000000004,
          1
        ],
        "metallicFactor": 0,
        "roughnessFactor": 0.94681704099999997
      }
    }
  ],
  "meshes": [
    {
      "name": "polySurface13_polySurface14_1_2_initialShadingGroup_0",
      "primitives": [
        {
          "attributes": {
            "NORMAL": 1,
            "POSITION": 0,
            "TANGENT": 2
          },
          "indices": 3,
          "material": 0,
          "mode": 4
        }
      ]
    }
  ],
  "nodes": [
    {
      "children": [
        1
      ],
      "name": "RootNode (gltf orientation matrix)",
      "rotation": [
        -0.70710678118654746,
        -0,
        -0,
        0.70710678118654757
      ]
    },
    {
      "children": [
        2
      ],
      "name": "RootNode (model correction matrix)"
    },
    {
      "children": [
        3
      ],
      "matrix": [
        1,
        0,
        0,
        0,
        0,
        0,
        1,
        0,
        0,
        -1,
        0,
        0,
        0,
        0,
        0,
        1
      ],
      "name": "e7da2e8225b142fd8d62ad0443f5f3c0.fbx"
    },
    {
      "children": [
        4
      ],
      "name": "RootNode"
    },
    {
      "children": [
        5
      ],
      "matrix": [
        1,
        0,
        0,
        0,
        0,
        1,
        0,
        0,
        0,
        0,
        1,
        0,
        -76.571365356445312,
        0,
        0,
        1
      ],
      "name": "Subdivision_Surface_1"
    },
    {
      "children": [
        7
      ],
      "name": "polySurface13_polySurface14_1_2"
    },
    {
      "mesh": 0,
      "name": "polySurface13_polySurface14_1_2_initialShadingGroup_0"
    },
    {
      "children": [
        6
      ],
      "name": "Geode"
    }
  ],
  "scene": 0,
  "scenes": [
    {
      "name": "OSG_Scene",
      "nodes": [
        0
      ]
    }
  ]
}

