{
  "accessors": [
    {
      "bufferView": 1,
      "componentType": 5126,
      "count": 1072,
      "max": [
        4.003119945526123,
        21.635719299316406,
        1.5497000217437744
      ],
      "min": [
        -4.003119945526123,
        5.4043102264404297,
        -2.1692800521850586
      ],
      "type": "VEC3"
    },
    {
      "bufferView": 1,
      "byteOffset": 12864,
      "componentType": 5126,
      "count": 1072,
      "max": [
        0.99942106008529663,
        0.93703782558441162,
        0.99967539310455322
      ],
      "min": [
        -0.9982113242149353,
        -0.93703782558441162,
        -0.99967539310455322
      ],
      "type": "VEC3"
    },
    {
      "bufferView": 2,
      "componentType": 5126,
      "count": 1072,
      "max": [
        0.99981194734573364,
        0.98659640550613403,
        0.99851828813552856,
        1
      ],
      "min": [
        -0.99981194734573364,
        -0.98906135559082031,
        -0.99985611438751221,
        -1
      ],
      "type": "VEC4"
    },
    {
      "bufferView": 0,
      "componentType": 5125,
      "count": 3984,
      "max": [
        1071
      ],
      "min": [
        0
      ],
      "type": "SCALAR"
    },
    {
      "bufferView": 1,
      "byteOffset": 25728,
      "componentType": 5126,
      "count": 158,
      "max": [
        2.6293599605560303,
        5.503960132598877,
        1.5582499504089355
      ],
      "min": [
        -2.6293599605560303,
        -0.033900000154972076,
        -1.4730099439620972
      ],
      "type": "VEC3"
    },
    {
      "bufferView": 1,
      "byteOffset": 27624,
      "componentType": 5126,
      "count": 158,
      "max": [
        0.98427385091781616,
        0.8991769552230835,
        0.99542766809463501
      ],
      "min": [
        -0.99493759870529175,
        -0.8991769552230835,
        -0.99542766809463501
      ],
      "type": "VEC3"
    },
    {
      "bufferView": 2,
      "byteOffset": 17152,
      "componentType": 5126,
      "count": 158,
      "max": [
        0.99750274419784546,
        0.77417528629302979,
        0.99762755632400513,
        1
      ],
      "min": [
        -0.99750274419784546,
        -0.90979355573654175,
        -0.99618291854858398,
        1
      ],
      "type": "VEC4"
    },
    {
      "bufferView": 0,
      "byteOffset": 15936,
      "componentType": 5125,
      "count": 516,
      "max": [
        157
      ],
      "min": [
        0
      ],
      "type": "SCALAR"
    }
  ],
  "asset": {
    "generator": "Sketchfab (OSG glTF plugin)",
    "version": "2.0"
  },
  "bufferViews": [
    {
      "buffer": 0,
      "byteLength": 18000,
      "byteOffset": 0,
      "name": "floatBufferViews",
      "target": 34963
    },
    {
      "buffer": 0,
      "byteLength": 29520,
      "byteOffset": 18000,
      "byteStride": 12,
      "name": "floatBufferViews",
      "target": 34962
    },
    {
      "buffer": 0,
      "byteLength": 19680,
      "byteOffset": 47520,
      "byteStride": 16,
      "name": "floatBufferViews",
      "target": 34962
    }
  ],
  "buffers": [
    {
      "byteLength": 67200,
      "uri": "scene.bin"
    }
  ],
  "materials": [
    {
      "doubleSided": true,
      "emissiveFactor": [
        0,
        0,
        0
      ],
      "name": "initialShadingGroup",
      "pbrMetallicRoughness": {
        "baseColorFactor": [
          0.5,
          0.5,
          0.5,
          1
        ],
        "metallicFactor": 0,
        "roughnessFactor": 0.59999999999999998
      }
    }
  ],
  "meshes": [
    {
      "name": "polySurface13 polySurface14_0",
      "primitives": [
        {
          "attributes": {
            "NORMAL": 1,
            "POSITION": 0,
            "TANGENT": 2
          },
          "indices": 3,
          "material": 0,
          "mode": 4
        }
      ]
    },
    {
      "name": "polySurface11 polySurface12_0",
      "primitives": [
        {
          "attributes": {
            "NORMAL": 5,
            "POSITION": 4,
            "TANGENT": 6
          },
          "indices": 7,
          "material": 0,
          "mode": 4
        }
      ]
    }
  ],
  "nodes": [
    {
      "children": [
        1
      ],
      "name": "RootNode (gltf orientation matrix)",
      "rotation": [
        -0.70710678118654746,
        -0,
        -0,
        0.70710678118654757
      ]
    },
    {
      "children": [
        2
      ],
      "name": "RootNode (model correction matrix)"
    },
    {
      "children": [
        3,
        6
      ],
      "name": "Root"
    },
    {
      "children": [
        5
      ],
      "matrix": [
        0.10000000000000001,
        0,
        0,
        0,
        0,
        -0,
        0.10000000000000001,
        0,
        0,
        -0.090000000000000024,
        -0,
        0,
        0,
        0,
        0,
        1
      ],
      "name": "polySurface13 polySurface14"
    },
    {
      "mesh": 0,
      "name": "polySurface13 polySurface14_0"
    },
    {
      "children": [
        4
      ],
      "name": "Geode"
    },
    {
      "children": [
        8
      ],
      "matrix": [
        0.10000000000000001,
        0,
        0,
        0,
        0,
        -0,
        0.10000000000000001,
        0,
        0,
        -0.10000000000000001,
        -0,
        0,
        0,
        0,
        0,
        1
      ],
      "name": "polySurface11 polySurface12"
    },
    {
      "mesh": 1,
      "name": "polySurface11 polySurface12_0"
    },
    {
      "children": [
        7
      ],
      "name": "Geode"
    }
  ],
  "scene": 0,
  "scenes": [
    {
      "name": "OSG_Scene",
      "nodes": [
        0
      ]
    }
  ]
}

